# xmcd
#
# Track frame offsets: 
#        150
#        14115
#        26995
#        52220
#        70636
#        84725
#        105128
#        119310
#        135206
#        155604
#        169236
#        189183
#        204911
#        218565
#
# Disc length: 3266 seconds
#
# Revision: 3
# Processed by: cddbd v1.5.1PL0 Copyright (c) Steve Scherf et al.
# Submitted via: ExactAudioCopy v0.95a5
#
DISCID=b90cc00e
DTITLE=J. J. Cale - Live
DYEAR=2001
DGENRE=Rock
TTITLE0=After Midnight
TTITLE1=Old Man
TTITLE2=Call Me the Breeze
TTITLE3=Sensitive Kind
TTITLE4=Cocaine
TTITLE5=Money Talks
TTITLE6=River Boat Song
TTITLE7=Living Here Too
TTITLE8=Mama Don't
TTITLE9=People
TTITLE10=Humdinger
TTITLE11=Thirteen Days
TTITLE12=Magnolia
TTITLE13=Ride Me High
EXTD=YEAR: 2001 ID3G: 17
EXTT0=\t\n
EXTT1=
EXTT2=
EXTT3=
EXTT4=
EXTT5=
EXTT6=
EXTT7=
EXTT8=
EXTT9=
EXTT10=
EXTT11=
EXTT12=
EXTT13=
PLAYORDER=
